<svg width="15" height="15" viewBox="0 0 15 15" fill="none" xmlns="http://www.w3.org/2000/svg">
<path fill-rule="evenodd" clip-rule="evenodd" d="M3.51522 2.76506C2.47836 3.23902 1.71875 4.36634 1.71875 5.71063C1.71875 7.084 2.28076 8.14256 3.08643 9.04981C3.75045 9.7975 4.55428 10.4172 5.33821 11.0216C5.5244 11.1651 5.70947 11.3078 5.89128 11.4511C6.22005 11.7103 6.51331 11.9378 6.796 12.1029C7.07881 12.2683 7.3065 12.3437 7.5 12.3437C7.6935 12.3437 7.92119 12.2683 8.204 12.1029C8.48669 11.9378 8.77994 11.7103 9.10875 11.4511C9.29056 11.3078 9.47563 11.1651 9.66181 11.0216C10.4458 10.4172 11.2496 9.7975 11.9136 9.04981C12.7193 8.14256 13.2812 7.084 13.2812 5.71063C13.2812 4.36634 12.5216 3.23902 11.4848 2.76506C10.4774 2.30462 9.12394 2.42656 7.83775 3.76291C7.74937 3.85471 7.62744 3.90659 7.5 3.90659C7.37256 3.90659 7.25063 3.85471 7.16225 3.76291C5.87604 2.42656 4.52254 2.30462 3.51522 2.76506ZM7.5 2.78671C6.05497 1.49384 4.43685 1.31299 3.12547 1.91242C1.74044 2.54552 0.78125 4.01559 0.78125 5.71063C0.78125 7.37656 1.47531 8.6475 2.38545 9.67231C3.11429 10.493 4.00639 11.1799 4.79427 11.7866C4.97287 11.9241 5.14611 12.0575 5.31089 12.1874C5.63103 12.4398 5.97471 12.7089 6.323 12.9124C6.67119 13.1158 7.0685 13.2812 7.5 13.2812C7.9315 13.2812 8.32881 13.1158 8.677 12.9124C9.02531 12.7089 9.36894 12.4398 9.68913 12.1874C9.85388 12.0575 10.0271 11.9241 10.2058 11.7866C10.9936 11.1799 11.8857 10.493 12.6146 9.67231C13.5247 8.6475 14.2188 7.37656 14.2188 5.71063C14.2188 4.01559 13.2596 2.54552 11.8745 1.91242C10.5631 1.31299 8.94506 1.49384 7.5 2.78671Z" fill="white"/>
</svg>
